<?xml version="1.0" encoding="UTF-8" standalone="no"?><!-- Generator: Gravit.io --><svg xmlns="http://www.w3.org/2000/svg" xmlns:xlink="http://www.w3.org/1999/xlink" style="isolation:isolate" viewBox="0 0 200 200" width="200pt" height="200pt"><defs><clipPath id="_clipPath_X54lRn5wOANX3hWkhz8u8plRm8flZJlq"><rect width="200" height="200"/></clipPath></defs><g clip-path="url(#_clipPath_X54lRn5wOANX3hWkhz8u8plRm8flZJlq)"><defs><linearGradient id="_lgradient_0" x1="0" y1="-0.020146520146520075" x2="1" y2="0.9999999999999998"><stop offset="2.1739130434782608%" style="stop-color:#0084FF"/><stop offset="100%" style="stop-color:#7B00FF"/></linearGradient></defs><path d="M 35.245 9 L 163.755 9 C 178.24 9 190 20.76 190 35.245 L 190 164.755 C 190 179.24 178.24 191 163.755 191 L 35.245 191 C 20.76 191 9 179.24 9 164.755 L 9 35.245 C 9 20.76 20.76 9 35.245 9 Z" style="stroke:none;fill:url(#_lgradient_0);stroke-miterlimit:10;"/><clipPath id="_clipPath_HRpFVec1gj39Se99D2oyz6bXaP2xOJh2"><path d="M 35.245 9 L 163.755 9 C 178.24 9 190 20.76 190 35.245 L 190 164.755 C 190 179.24 178.24 191 163.755 191 L 35.245 191 C 20.76 191 9 179.24 9 164.755 L 9 35.245 C 9 20.76 20.76 9 35.245 9 Z" style="stroke:none;fill:url(#_lgradient_0);stroke-miterlimit:10;"/></clipPath><g clip-path="url(#_clipPath_HRpFVec1gj39Se99D2oyz6bXaP2xOJh2)"><text transform="matrix(1,0,0,1,-6.85,190.95)" style="font-family:'Pacifico';font-weight:400;font-size:150px;font-style:normal;fill:#ffffff;stroke:none;">Fr</text></g></g></svg>